# xmcd
#
# Track frame offsets: 
#        150
#        21840
#        40848
#        63243
#        79200
#        91120
#        112203
#        128576
#        150597
#        169354
#        184840
#        199174
#        215947
#        233340
#        254832
#        273492
#        289485
#        302254
#        321348
#        340661
#
# Disc length: 4705 seconds
#
# Revision: 0
# Processed by: cddbd v1.5.2PL0 Copyright (c) Steve Scherf et al.
# Submitted via: ExactAudioCopy v1.0b1
#
DISCID=26125f14
DTITLE=Best of Blues  - Best of Blues -Modern Blues CD 03
DYEAR=2010
DGENRE=Blues
TTITLE0=Lucky Peterson - Is it because I am black ?
TTITLE1=Popa Chubby - The wind cries Mary
TTITLE2=Blind Boys of Alabama - Getting better
TTITLE3=Eric Bibb - Destiny blues
TTITLE4=Gashouse dave - It's drag always being right
TTITLE5=Taj Mahal and James Cotton - Honky Tonk woman
TTITLE6=Tino Gonzales - No more misery
TTITLE7=Amar Sundy - Men in trouble
TTITLE8=Duke Robillard -Tore up
TTITLE9=Capitain Luke and Cool John Fergusson - Poke salad Annie
TTITLE10=Johnny Winter- Don't take advantage of me
TTITLE11=Fred Chapellier - Further on up the road
TTITLE12=Lonnie Brooks, Long john Hunter and Philip Walker - Born in Lou
TTITLE12=siana
TTITLE13=The Kinsey Report - Down the dungeon
TTITLE14=Cyril Lance - Same Thing
TTITLE15=Jimmy Mc Griff - Jumping the blues
TTITLE16=Nico Wayne Toussaint - Hot sometimes
TTITLE17=Phil Brown - IP 6 was 9
TTITLE18=Tommy Castro - It serves you right to suffer
TTITLE19=Bireli Langrene - Blues clair
EXTD=
EXTT0=
EXTT1=
EXTT2=
EXTT3=
EXTT4=
EXTT5=
EXTT6=
EXTT7=
EXTT8=
EXTT9=
EXTT10=
EXTT11=
EXTT12=
EXTT13=
EXTT14=
EXTT15=
EXTT16=
EXTT17=
EXTT18=
EXTT19=
PLAYORDER=
